<?xml version="1.0" encoding="utf-8"?>
<!DOCTYPE svg PUBLIC "-//W3C//DTD SVG 1.1//EN"
"http://www.w3.org/Graphics/SVG/1.1/DTD/svg11.dtd">
<svg width="2000" height="2000" version="1.1"
xmlns="http://www.w3.org/2000/svg" style="background-color: white">
<rect x="0" y="0" width="2000" height="2000" fill="#ffffff" />
<line x1="100" y1="100" x2="1900" y2="100" stroke="black" />
<text x="1900" y="100" font-family="Arial" font-size="20">100</text>
<line x1="100" y1="100" x2="100" y2="1900" stroke="black" />
<text x="100" y="100" font-family="Arial" font-size="20">0</text>
<text x="100" y="1900" font-family="Arial" font-size="20">100</text>
<circle cx="460.000000" cy="370.000000" r="8" stroke="black" stroke-width="1" fill="black"/>
<circle cx="640.000000" cy="1738.000000" r="8" stroke="black" stroke-width="1" fill="black"/>
<circle cx="730.000000" cy="622.000000" r="8" stroke="black" stroke-width="1" fill="black"/>
<circle cx="460.000000" cy="1864.000000" r="8" stroke="black" stroke-width="1" fill="black"/>
<circle cx="712.000000" cy="1324.000000" r="8" stroke="black" stroke-width="1" fill="black"/>
<circle cx="712.000000" cy="928.000000" r="8" stroke="black" stroke-width="1" fill="black"/>
<circle cx="514.000000" cy="766.000000" r="8" stroke="black" stroke-width="1" fill="black"/>
<circle cx="568.000000" cy="1126.000000" r="8" stroke="black" stroke-width="1" fill="black"/>
<circle cx="532.000000" cy="1054.000000" r="8" stroke="black" stroke-width="1" fill="black"/>
<circle cx="604.000000" cy="298.000000" r="8" stroke="black" stroke-width="1" fill="black"/>
<circle cx="712.000000" cy="658.000000" r="8" stroke="black" stroke-width="1" fill="black"/>
<circle cx="766.000000" cy="334.000000" r="8" stroke="black" stroke-width="1" fill="black"/>
<circle cx="658.000000" cy="514.000000" r="8" stroke="black" stroke-width="1" fill="black"/>
<circle cx="766.000000" cy="1108.000000" r="8" stroke="black" stroke-width="1" fill="black"/>
<circle cx="766.000000" cy="352.000000" r="8" stroke="black" stroke-width="1" fill="black"/>
<circle cx="766.000000" cy="406.000000" r="8" stroke="black" stroke-width="1" fill="black"/>
<circle cx="622.000000" cy="442.000000" r="8" stroke="black" stroke-width="1" fill="black"/>
<circle cx="460.000000" cy="1252.000000" r="8" stroke="black" stroke-width="1" fill="black"/>
<circle cx="478.000000" cy="1540.000000" r="8" stroke="black" stroke-width="1" fill="black"/>
<circle cx="712.000000" cy="730.000000" r="8" stroke="black" stroke-width="1" fill="black"/>
<circle cx="478.000000" cy="964.000000" r="8" stroke="black" stroke-width="1" fill="black"/>
<circle cx="694.000000" cy="532.000000" r="8" stroke="black" stroke-width="1" fill="black"/>
<circle cx="568.000000" cy="802.000000" r="8" stroke="black" stroke-width="1" fill="black"/>
<circle cx="478.000000" cy="496.000000" r="8" stroke="black" stroke-width="1" fill="black"/>
<circle cx="550.000000" cy="1558.000000" r="8" stroke="black" stroke-width="1" fill="black"/>
<circle cx="550.000000" cy="1882.000000" r="8" stroke="black" stroke-width="1" fill="black"/>
<circle cx="550.000000" cy="1594.000000" r="8" stroke="black" stroke-width="1" fill="black"/>
<circle cx="532.000000" cy="1108.000000" r="8" stroke="black" stroke-width="1" fill="black"/>
<circle cx="784.000000" cy="136.000000" r="8" stroke="black" stroke-width="1" fill="black"/>
<circle cx="532.000000" cy="226.000000" r="8" stroke="black" stroke-width="1" fill="black"/>
<circle cx="748.000000" cy="352.000000" r="8" stroke="black" stroke-width="1" fill="black"/>
<circle cx="532.000000" cy="1864.000000" r="8" stroke="black" stroke-width="1" fill="black"/>
<circle cx="694.000000" cy="1612.000000" r="8" stroke="black" stroke-width="1" fill="black"/>
<circle cx="712.000000" cy="1648.000000" r="8" stroke="black" stroke-width="1" fill="black"/>
<circle cx="766.000000" cy="622.000000" r="8" stroke="black" stroke-width="1" fill="black"/>
<circle cx="712.000000" cy="424.000000" r="8" stroke="black" stroke-width="1" fill="black"/>
<circle cx="622.000000" cy="226.000000" r="8" stroke="black" stroke-width="1" fill="black"/>
<circle cx="496.000000" cy="1306.000000" r="8" stroke="black" stroke-width="1" fill="black"/>
<circle cx="802.000000" cy="1450.000000" r="8" stroke="black" stroke-width="1" fill="black"/>
<circle cx="622.000000" cy="892.000000" r="8" stroke="black" stroke-width="1" fill="black"/>
<circle cx="622.000000" cy="586.000000" r="8" stroke="black" stroke-width="1" fill="black"/>
<circle cx="730.000000" cy="1432.000000" r="8" stroke="black" stroke-width="1" fill="black"/>
<circle cx="496.000000" cy="1180.000000" r="8" stroke="black" stroke-width="1" fill="black"/>
<circle cx="496.000000" cy="460.000000" r="8" stroke="black" stroke-width="1" fill="black"/>
<circle cx="712.000000" cy="1882.000000" r="8" stroke="black" stroke-width="1" fill="black"/>
<circle cx="802.000000" cy="1576.000000" r="8" stroke="black" stroke-width="1" fill="black"/>
<circle cx="694.000000" cy="154.000000" r="8" stroke="black" stroke-width="1" fill="black"/>
<circle cx="460.000000" cy="1864.000000" r="8" stroke="black" stroke-width="1" fill="black"/>
<circle cx="802.000000" cy="1810.000000" r="8" stroke="black" stroke-width="1" fill="black"/>
<circle cx="550.000000" cy="1108.000000" r="8" stroke="black" stroke-width="1" fill="black"/>
<circle cx="748.000000" cy="1162.000000" r="8" stroke="black" stroke-width="1" fill="black"/>
<circle cx="712.000000" cy="190.000000" r="8" stroke="black" stroke-width="1" fill="black"/>
<circle cx="784.000000" cy="1324.000000" r="8" stroke="black" stroke-width="1" fill="black"/>
<circle cx="550.000000" cy="406.000000" r="8" stroke="black" stroke-width="1" fill="black"/>
<circle cx="748.000000" cy="352.000000" r="8" stroke="black" stroke-width="1" fill="black"/>
<circle cx="694.000000" cy="1126.000000" r="8" stroke="black" stroke-width="1" fill="black"/>
<circle cx="478.000000" cy="262.000000" r="8" stroke="black" stroke-width="1" fill="black"/>
<circle cx="514.000000" cy="1090.000000" r="8" stroke="black" stroke-width="1" fill="black"/>
<circle cx="478.000000" cy="1270.000000" r="8" stroke="black" stroke-width="1" fill="black"/>
<circle cx="730.000000" cy="730.000000" r="8" stroke="black" stroke-width="1" fill="black"/>
<circle cx="532.000000" cy="208.000000" r="8" stroke="black" stroke-width="1" fill="black"/>
<circle cx="766.000000" cy="622.000000" r="8" stroke="black" stroke-width="1" fill="black"/>
<circle cx="622.000000" cy="1000.000000" r="8" stroke="black" stroke-width="1" fill="black"/>
<circle cx="604.000000" cy="118.000000" r="8" stroke="black" stroke-width="1" fill="black"/>
<circle cx="766.000000" cy="1270.000000" r="8" stroke="black" stroke-width="1" fill="black"/>
<circle cx="622.000000" cy="1414.000000" r="8" stroke="black" stroke-width="1" fill="black"/>
<circle cx="748.000000" cy="748.000000" r="8" stroke="black" stroke-width="1" fill="black"/>
<circle cx="640.000000" cy="1792.000000" r="8" stroke="black" stroke-width="1" fill="black"/>
<circle cx="748.000000" cy="1090.000000" r="8" stroke="black" stroke-width="1" fill="black"/>
<circle cx="532.000000" cy="1036.000000" r="8" stroke="black" stroke-width="1" fill="black"/>
<circle cx="496.000000" cy="622.000000" r="8" stroke="black" stroke-width="1" fill="black"/>
<circle cx="478.000000" cy="370.000000" r="8" stroke="black" stroke-width="1" fill="black"/>
<circle cx="784.000000" cy="892.000000" r="8" stroke="black" stroke-width="1" fill="black"/>
<circle cx="658.000000" cy="298.000000" r="8" stroke="black" stroke-width="1" fill="black"/>
<circle cx="496.000000" cy="1864.000000" r="8" stroke="black" stroke-width="1" fill="black"/>
<circle cx="784.000000" cy="568.000000" r="8" stroke="black" stroke-width="1" fill="black"/>
<circle cx="550.000000" cy="1324.000000" r="8" stroke="black" stroke-width="1" fill="black"/>
<circle cx="604.000000" cy="1288.000000" r="8" stroke="black" stroke-width="1" fill="black"/>
<circle cx="784.000000" cy="1684.000000" r="8" stroke="black" stroke-width="1" fill="black"/>
<circle cx="802.000000" cy="1306.000000" r="8" stroke="black" stroke-width="1" fill="black"/>
<circle cx="694.000000" cy="622.000000" r="8" stroke="black" stroke-width="1" fill="black"/>
<circle cx="676.000000" cy="622.000000" r="8" stroke="black" stroke-width="1" fill="black"/>
<circle cx="766.000000" cy="1432.000000" r="8" stroke="black" stroke-width="1" fill="black"/>
<circle cx="730.000000" cy="1414.000000" r="8" stroke="black" stroke-width="1" fill="black"/>
<circle cx="640.000000" cy="1738.000000" r="8" stroke="black" stroke-width="1" fill="black"/>
<circle cx="784.000000" cy="172.000000" r="8" stroke="black" stroke-width="1" fill="black"/>
<circle cx="478.000000" cy="802.000000" r="8" stroke="black" stroke-width="1" fill="black"/>
<circle cx="802.000000" cy="1162.000000" r="8" stroke="black" stroke-width="1" fill="black"/>
<circle cx="532.000000" cy="856.000000" r="8" stroke="black" stroke-width="1" fill="black"/>
<circle cx="514.000000" cy="928.000000" r="8" stroke="black" stroke-width="1" fill="black"/>
<circle cx="478.000000" cy="1414.000000" r="8" stroke="black" stroke-width="1" fill="black"/>
<circle cx="532.000000" cy="1864.000000" r="8" stroke="black" stroke-width="1" fill="black"/>
<circle cx="478.000000" cy="1612.000000" r="8" stroke="black" stroke-width="1" fill="black"/>
<circle cx="748.000000" cy="298.000000" r="8" stroke="black" stroke-width="1" fill="black"/>
<circle cx="676.000000" cy="748.000000" r="8" stroke="black" stroke-width="1" fill="black"/>
<circle cx="784.000000" cy="550.000000" r="8" stroke="black" stroke-width="1" fill="black"/>
<circle cx="766.000000" cy="496.000000" r="8" stroke="black" stroke-width="1" fill="black"/>
<circle cx="568.000000" cy="712.000000" r="8" stroke="black" stroke-width="1" fill="black"/>
<circle cx="766.000000" cy="712.000000" r="8" stroke="black" stroke-width="1" fill="black"/>
<circle cx="586.000000" cy="1522.000000" r="8" stroke="black" stroke-width="1" fill="black"/>
<circle cx="678.975659" cy="1003.121704" r="888.291495" stroke="red" stroke-width="3" fill="transparent" fill-opacity="0" />
</svg>
