<?xml version="1.0" encoding="utf-8"?>
<!DOCTYPE svg PUBLIC "-//W3C//DTD SVG 1.1//EN"
"http://www.w3.org/Graphics/SVG/1.1/DTD/svg11.dtd">
<svg width="500" height="500" version="1.1"
xmlns="http://www.w3.org/2000/svg">
<circle cx="67" cy="62" r="1" stroke="black" stroke-width="1" fill="black"/>
<circle cx="94" cy="48" r="1" stroke="black" stroke-width="1" fill="black"/>
<circle cx="7" cy="96" r="1" stroke="black" stroke-width="1" fill="black"/>
<circle cx="65" cy="68" r="1" stroke="black" stroke-width="1" fill="black"/>
<circle cx="21" cy="7" r="1" stroke="black" stroke-width="1" fill="black"/>
<circle cx="55" cy="84" r="1" stroke="black" stroke-width="1" fill="black"/>
<circle cx="66" cy="21" r="1" stroke="black" stroke-width="1" fill="black"/>
<circle cx="29" cy="46" r="1" stroke="black" stroke-width="1" fill="black"/>
<circle cx="83" cy="7" r="1" stroke="black" stroke-width="1" fill="black"/>
<circle cx="85" cy="62" r="1" stroke="black" stroke-width="1" fill="black"/>
<circle cx="27" cy="6" r="1" stroke="black" stroke-width="1" fill="black"/>
<circle cx="40" cy="32" r="1" stroke="black" stroke-width="1" fill="black"/>
<circle cx="81" cy="14" r="1" stroke="black" stroke-width="1" fill="black"/>
<circle cx="72" cy="52" r="1" stroke="black" stroke-width="1" fill="black"/>
<circle cx="15" cy="19" r="1" stroke="black" stroke-width="1" fill="black"/>
<circle cx="72" cy="83" r="1" stroke="black" stroke-width="1" fill="black"/>
<circle cx="81" cy="66" r="1" stroke="black" stroke-width="1" fill="black"/>
<circle cx="83" cy="40" r="1" stroke="black" stroke-width="1" fill="black"/>
<circle cx="15" cy="48" r="1" stroke="black" stroke-width="1" fill="black"/>
<circle cx="8" cy="88" r="1" stroke="black" stroke-width="1" fill="black"/>
<circle cx="55" cy="64" r="1" stroke="black" stroke-width="1" fill="black"/>
<circle cx="24" cy="73" r="1" stroke="black" stroke-width="1" fill="black"/>
<circle cx="37" cy="53" r="1" stroke="black" stroke-width="1" fill="black"/>
<circle cx="19" cy="72" r="1" stroke="black" stroke-width="1" fill="black"/>
<circle cx="12" cy="4" r="1" stroke="black" stroke-width="1" fill="black"/>
<circle cx="35" cy="40" r="1" stroke="black" stroke-width="1" fill="black"/>
<circle cx="63" cy="27" r="1" stroke="black" stroke-width="1" fill="black"/>
<circle cx="24" cy="44" r="1" stroke="black" stroke-width="1" fill="black"/>
<circle cx="42" cy="96" r="1" stroke="black" stroke-width="1" fill="black"/>
<circle cx="48" cy="57" r="1" stroke="black" stroke-width="1" fill="black"/>
<circle cx="68" cy="72" r="1" stroke="black" stroke-width="1" fill="black"/>
<circle cx="92" cy="1" r="1" stroke="black" stroke-width="1" fill="black"/>
<circle cx="90" cy="28" r="1" stroke="black" stroke-width="1" fill="black"/>
<circle cx="42" cy="57" r="1" stroke="black" stroke-width="1" fill="black"/>
<circle cx="76" cy="2" r="1" stroke="black" stroke-width="1" fill="black"/>
<circle cx="45" cy="84" r="1" stroke="black" stroke-width="1" fill="black"/>
<circle cx="18" cy="69" r="1" stroke="black" stroke-width="1" fill="black"/>
<circle cx="57" cy="55" r="1" stroke="black" stroke-width="1" fill="black"/>
<circle cx="75" cy="77" r="1" stroke="black" stroke-width="1" fill="black"/>
<circle cx="28" cy="87" r="1" stroke="black" stroke-width="1" fill="black"/>
<circle cx="100" cy="200" r="50" stroke="red" stroke-width="3" fill="transparent" fill-opacity="0" />
</svg>
