<?xml version="1.0" encoding="utf-8"?>
<!DOCTYPE svg PUBLIC "-//W3C//DTD SVG 1.1//EN"
"http://www.w3.org/Graphics/SVG/1.1/DTD/svg11.dtd">
<svg width="2000" height="2000" version="1.1"
xmlns="http://www.w3.org/2000/svg" style="background-color: white">
<rect x="0" y="0" width="2000" height="2000" fill="#ffffff" />
<line x1="100" y1="100" x2="1900" y2="100" stroke="black" />
<text x="1900" y="100" font-family="Arial" font-size="20">50</text>
<line x1="100" y1="100" x2="100" y2="1900" stroke="black" />
<text x="100" y="100" font-family="Arial" font-size="20">0</text>
<text x="100" y="1900" font-family="Arial" font-size="20">50</text>
<circle cx="1216.000000" cy="352.000000" r="8" stroke="black" stroke-width="1" fill="black"/>
<circle cx="100.000000" cy="424.000000" r="8" stroke="black" stroke-width="1" fill="black"/>
<circle cx="712.000000" cy="640.000000" r="8" stroke="black" stroke-width="1" fill="black"/>
<circle cx="1756.000000" cy="100.000000" r="8" stroke="black" stroke-width="1" fill="black"/>
<circle cx="1540.000000" cy="640.000000" r="8" stroke="black" stroke-width="1" fill="black"/>
<circle cx="892.000000" cy="1864.000000" r="8" stroke="black" stroke-width="1" fill="black"/>
<circle cx="568.000000" cy="316.000000" r="8" stroke="black" stroke-width="1" fill="black"/>
<circle cx="1108.000000" cy="1108.000000" r="8" stroke="black" stroke-width="1" fill="black"/>
<circle cx="1720.000000" cy="1324.000000" r="8" stroke="black" stroke-width="1" fill="black"/>
<circle cx="1144.000000" cy="1432.000000" r="8" stroke="black" stroke-width="1" fill="black"/>
<circle cx="244.000000" cy="352.000000" r="8" stroke="black" stroke-width="1" fill="black"/>
<circle cx="1396.000000" cy="1684.000000" r="8" stroke="black" stroke-width="1" fill="black"/>
<circle cx="172.000000" cy="1756.000000" r="8" stroke="black" stroke-width="1" fill="black"/>
<circle cx="928.000000" cy="1684.000000" r="8" stroke="black" stroke-width="1" fill="black"/>
<circle cx="928.000000" cy="136.000000" r="8" stroke="black" stroke-width="1" fill="black"/>
<circle cx="1468.000000" cy="316.000000" r="8" stroke="black" stroke-width="1" fill="black"/>
<circle cx="388.000000" cy="1468.000000" r="8" stroke="black" stroke-width="1" fill="black"/>
<circle cx="640.000000" cy="1072.000000" r="8" stroke="black" stroke-width="1" fill="black"/>
<circle cx="244.000000" cy="604.000000" r="8" stroke="black" stroke-width="1" fill="black"/>
<circle cx="1072.000000" cy="1756.000000" r="8" stroke="black" stroke-width="1" fill="black"/>
<circle cx="1144.000000" cy="172.000000" r="8" stroke="black" stroke-width="1" fill="black"/>
<circle cx="1720.000000" cy="1612.000000" r="8" stroke="black" stroke-width="1" fill="black"/>
<circle cx="388.000000" cy="1000.000000" r="8" stroke="black" stroke-width="1" fill="black"/>
<circle cx="892.000000" cy="280.000000" r="8" stroke="black" stroke-width="1" fill="black"/>
<circle cx="424.000000" cy="136.000000" r="8" stroke="black" stroke-width="1" fill="black"/>
<circle cx="1612.000000" cy="604.000000" r="8" stroke="black" stroke-width="1" fill="black"/>
<circle cx="460.000000" cy="1216.000000" r="8" stroke="black" stroke-width="1" fill="black"/>
<circle cx="388.000000" cy="532.000000" r="8" stroke="black" stroke-width="1" fill="black"/>
<circle cx="1072.000000" cy="1324.000000" r="8" stroke="black" stroke-width="1" fill="black"/>
<circle cx="424.000000" cy="172.000000" r="8" stroke="black" stroke-width="1" fill="black"/>
<circle cx="1360.000000" cy="1792.000000" r="8" stroke="black" stroke-width="1" fill="black"/>
<circle cx="424.000000" cy="1648.000000" r="8" stroke="black" stroke-width="1" fill="black"/>
<circle cx="1468.000000" cy="964.000000" r="8" stroke="black" stroke-width="1" fill="black"/>
<circle cx="820.000000" cy="1612.000000" r="8" stroke="black" stroke-width="1" fill="black"/>
<circle cx="1540.000000" cy="1864.000000" r="8" stroke="black" stroke-width="1" fill="black"/>
<circle cx="1540.000000" cy="784.000000" r="8" stroke="black" stroke-width="1" fill="black"/>
<circle cx="208.000000" cy="1432.000000" r="8" stroke="black" stroke-width="1" fill="black"/>
<circle cx="568.000000" cy="496.000000" r="8" stroke="black" stroke-width="1" fill="black"/>
<circle cx="568.000000" cy="1432.000000" r="8" stroke="black" stroke-width="1" fill="black"/>
<circle cx="676.000000" cy="892.000000" r="8" stroke="black" stroke-width="1" fill="black"/>
<circle cx="1576.000000" cy="496.000000" r="8" stroke="black" stroke-width="1" fill="black"/>
<circle cx="1396.000000" cy="136.000000" r="8" stroke="black" stroke-width="1" fill="black"/>
<circle cx="1612.000000" cy="1792.000000" r="8" stroke="black" stroke-width="1" fill="black"/>
<circle cx="676.000000" cy="856.000000" r="8" stroke="black" stroke-width="1" fill="black"/>
<circle cx="1288.000000" cy="1072.000000" r="8" stroke="black" stroke-width="1" fill="black"/>
<circle cx="928.000000" cy="748.000000" r="8" stroke="black" stroke-width="1" fill="black"/>
<circle cx="964.000000" cy="1252.000000" r="8" stroke="black" stroke-width="1" fill="black"/>
<circle cx="568.000000" cy="604.000000" r="8" stroke="black" stroke-width="1" fill="black"/>
<circle cx="424.000000" cy="1360.000000" r="8" stroke="black" stroke-width="1" fill="black"/>
<circle cx="388.000000" cy="1864.000000" r="8" stroke="black" stroke-width="1" fill="black"/>
<circle cx="1396.000000" cy="1828.000000" r="8" stroke="black" stroke-width="1" fill="black"/>
<circle cx="856.000000" cy="1540.000000" r="8" stroke="black" stroke-width="1" fill="black"/>
<circle cx="1396.000000" cy="1396.000000" r="8" stroke="black" stroke-width="1" fill="black"/>
<circle cx="136.000000" cy="1864.000000" r="8" stroke="black" stroke-width="1" fill="black"/>
<circle cx="964.000000" cy="820.000000" r="8" stroke="black" stroke-width="1" fill="black"/>
<circle cx="928.000000" cy="640.000000" r="8" stroke="black" stroke-width="1" fill="black"/>
<circle cx="1216.000000" cy="532.000000" r="8" stroke="black" stroke-width="1" fill="black"/>
<circle cx="748.000000" cy="1000.000000" r="8" stroke="black" stroke-width="1" fill="black"/>
<circle cx="496.000000" cy="1324.000000" r="8" stroke="black" stroke-width="1" fill="black"/>
<circle cx="1756.000000" cy="1684.000000" r="8" stroke="black" stroke-width="1" fill="black"/>
<circle cx="496.000000" cy="856.000000" r="8" stroke="black" stroke-width="1" fill="black"/>
<circle cx="604.000000" cy="1468.000000" r="8" stroke="black" stroke-width="1" fill="black"/>
<circle cx="316.000000" cy="1072.000000" r="8" stroke="black" stroke-width="1" fill="black"/>
<circle cx="172.000000" cy="640.000000" r="8" stroke="black" stroke-width="1" fill="black"/>
<circle cx="532.000000" cy="496.000000" r="8" stroke="black" stroke-width="1" fill="black"/>
<circle cx="676.000000" cy="1828.000000" r="8" stroke="black" stroke-width="1" fill="black"/>
<circle cx="496.000000" cy="1432.000000" r="8" stroke="black" stroke-width="1" fill="black"/>
<circle cx="1468.000000" cy="1864.000000" r="8" stroke="black" stroke-width="1" fill="black"/>
<circle cx="1036.000000" cy="1612.000000" r="8" stroke="black" stroke-width="1" fill="black"/>
<circle cx="100.000000" cy="100.000000" r="8" stroke="black" stroke-width="1" fill="black"/>
<circle cx="532.000000" cy="964.000000" r="8" stroke="black" stroke-width="1" fill="black"/>
<circle cx="712.000000" cy="1720.000000" r="8" stroke="black" stroke-width="1" fill="black"/>
<circle cx="1468.000000" cy="1360.000000" r="8" stroke="black" stroke-width="1" fill="black"/>
<circle cx="820.000000" cy="1864.000000" r="8" stroke="black" stroke-width="1" fill="black"/>
<circle cx="820.000000" cy="676.000000" r="8" stroke="black" stroke-width="1" fill="black"/>
<circle cx="1720.000000" cy="1288.000000" r="8" stroke="black" stroke-width="1" fill="black"/>
<circle cx="1504.000000" cy="424.000000" r="8" stroke="black" stroke-width="1" fill="black"/>
<circle cx="856.000000" cy="1720.000000" r="8" stroke="black" stroke-width="1" fill="black"/>
<circle cx="1396.000000" cy="964.000000" r="8" stroke="black" stroke-width="1" fill="black"/>
<circle cx="532.000000" cy="100.000000" r="8" stroke="black" stroke-width="1" fill="black"/>
<circle cx="1432.000000" cy="1144.000000" r="8" stroke="black" stroke-width="1" fill="black"/>
<circle cx="1828.000000" cy="1828.000000" r="8" stroke="black" stroke-width="1" fill="black"/>
<circle cx="748.000000" cy="1504.000000" r="8" stroke="black" stroke-width="1" fill="black"/>
<circle cx="1828.000000" cy="1684.000000" r="8" stroke="black" stroke-width="1" fill="black"/>
<circle cx="1288.000000" cy="1828.000000" r="8" stroke="black" stroke-width="1" fill="black"/>
<circle cx="1756.000000" cy="1720.000000" r="8" stroke="black" stroke-width="1" fill="black"/>
<circle cx="964.000000" cy="568.000000" r="8" stroke="black" stroke-width="1" fill="black"/>
<circle cx="1612.000000" cy="532.000000" r="8" stroke="black" stroke-width="1" fill="black"/>
<circle cx="1864.000000" cy="532.000000" r="8" stroke="black" stroke-width="1" fill="black"/>
<circle cx="496.000000" cy="856.000000" r="8" stroke="black" stroke-width="1" fill="black"/>
<circle cx="1180.000000" cy="316.000000" r="8" stroke="black" stroke-width="1" fill="black"/>
<circle cx="244.000000" cy="784.000000" r="8" stroke="black" stroke-width="1" fill="black"/>
<circle cx="640.000000" cy="1108.000000" r="8" stroke="black" stroke-width="1" fill="black"/>
<circle cx="712.000000" cy="208.000000" r="8" stroke="black" stroke-width="1" fill="black"/>
<circle cx="244.000000" cy="1144.000000" r="8" stroke="black" stroke-width="1" fill="black"/>
<circle cx="208.000000" cy="1576.000000" r="8" stroke="black" stroke-width="1" fill="black"/>
<circle cx="388.000000" cy="244.000000" r="8" stroke="black" stroke-width="1" fill="black"/>
<circle cx="1576.000000" cy="1144.000000" r="8" stroke="black" stroke-width="1" fill="black"/>
<circle cx="1648.000000" cy="1576.000000" r="8" stroke="black" stroke-width="1" fill="black"/>
<circle cx="928.000000" cy="1108.000000" r="8" stroke="black" stroke-width="1" fill="black"/>
<circle cx="963.250000" cy="964.750000" r="1221.880978" stroke="red" stroke-width="3" fill="transparent" fill-opacity="0" />
</svg>
